<svg viewBox="0 0 356 356" fill="none" xmlns="http://www.w3.org/2000/svg">
<path d="M72 34L70 36L133 98C124 112 119 129 119 148C119 202 158 237 208 237C226 237 243 232 258 223L320 286C288 329 236 356 178 356C80 356 3.15232e-05 279 3.15232e-05 178C3.15232e-05 118 28 66 72 34ZM101 17C125 6 151 0 178 0C276 0 356 77 356 178C356 206 350 232 339 255L283 198C292 184 297 168 297 148C297 95 257 59 208 59C189 59 172 64 158 73L101 17ZM208 202C178 202 154 180 154 148C154 116 178 95 208 95C238 95 261 116 261 148C261 180 238 202 208 202Z" fill="#7E34EE"/>
</svg>
